<?xml version="1.0" encoding="utf-8"?>
<!-- Generator: Adobe Illustrator 26.4.1, SVG Export Plug-In . SVG Version: 6.00 Build 0)  -->
<svg version="1.1" id="Слой_1" xmlns="http://www.w3.org/2000/svg" xmlns:xlink="http://www.w3.org/1999/xlink" x="0px" y="0px"
	 viewBox="0 0 250 100" style="enable-background:new 0 0 250 100;" xml:space="preserve">
<style type="text/css">
	.st0{fill:url(#SVGID_1_);}
	.st1{fill:url(#SVGID_00000042729753172212587610000006553438063193785279_);}
	.st2{fill:url(#SVGID_00000033371418204661859940000009759947118439575186_);}
	.st3{fill:url(#SVGID_00000022553239562325941310000010704788668048024206_);}
	.st4{fill:url(#SVGID_00000083769521048813275910000009925635815455271813_);}
	.st5{fill:url(#SVGID_00000153702009118630284300000010597937126539514782_);}
	.st6{fill:url(#SVGID_00000057111590087448354080000015874511948318822040_);stroke:#FFFFFF;stroke-width:4;stroke-miterlimit:10;}
</style>
<g>
	<linearGradient id="SVGID_1_" gradientUnits="userSpaceOnUse" x1="0.383" y1="50.9421" x2="57.1182" y2="50.9421">
		<stop  offset="0" style="stop-color:#D57F00"/>
		<stop  offset="1" style="stop-color:#FBAE17"/>
	</linearGradient>
	<path class="st0" d="M54.87,24.02v0.62c-0.95,0.12-1.64,0.23-2.04,0.31c-0.41,0.09-0.86,0.33-1.36,0.75
		c-0.77,0.63-1.26,1.23-1.45,1.79c-0.19,0.56-0.31,1.54-0.36,2.92c-0.07,0.22-0.07,0.44,0,0.66l1.74,39.99
		c0.05,1.68,0.42,3.13,1.12,4.35c0.7,1.22,2.24,1.84,4.6,1.87v0.58H40.86v-0.58c2.13-0.24,3.58-0.91,4.33-1.99
		c0.75-1.08,1.07-2.77,0.95-5.06l-1.74-41.38h-0.14L26.55,77.87L9.79,30.63H9.65L7.85,68.8c-0.09,2.1,0.03,3.72,0.36,4.88
		c0.33,1.16,0.86,1.99,1.58,2.49c0.73,0.5,1.81,0.87,3.24,1.12v0.58H0.38v-0.58c1.61-0.02,2.84-0.44,3.68-1.24
		c0.84-0.8,1.39-1.81,1.65-3.02s0.46-2.86,0.6-4.95l2.01-39.48c0-0.15-0.14-0.41-0.41-0.79c-0.27-0.38-0.61-0.75-1-1.13
		c-0.4-0.38-0.78-0.68-1.14-0.9c-0.77-0.51-1.44-0.81-2.01-0.9c-0.57-0.08-1.36-0.16-2.39-0.24v-0.62h11.65l15.54,44.05l15.78-44.05
		H54.87z"/>
	
		<linearGradient id="SVGID_00000161595627542481606780000006739102516608775299_" gradientUnits="userSpaceOnUse" x1="61.3104" y1="50.9421" x2="77.2237" y2="50.9421">
		<stop  offset="0" style="stop-color:#D57F00"/>
		<stop  offset="1" style="stop-color:#FBAE17"/>
	</linearGradient>
	<path style="fill:url(#SVGID_00000161595627542481606780000006739102516608775299_);" d="M77.22,24.02v0.62
		c-1.5,0-2.77,0.45-3.82,1.35c-1.05,0.9-1.57,2.4-1.57,4.5v40.87c0,2.07,0.56,3.58,1.67,4.51c1.11,0.94,2.35,1.41,3.71,1.41v0.58
		H61.31v-0.58c1.45,0,2.71-0.46,3.76-1.37c1.06-0.91,1.58-2.43,1.58-4.55V30.49c0-2.24-0.53-3.78-1.58-4.61
		c-1.06-0.83-2.31-1.24-3.76-1.24v-0.62H77.22z"/>
	
		<linearGradient id="SVGID_00000011753166525899118640000007857267692893539992_" gradientUnits="userSpaceOnUse" x1="82.1645" y1="50.9421" x2="120.0385" y2="50.9421">
		<stop  offset="0" style="stop-color:#D57F00"/>
		<stop  offset="1" style="stop-color:#FBAE17"/>
	</linearGradient>
	<path style="fill:url(#SVGID_00000011753166525899118640000007857267692893539992_);" d="M120.04,77.87h-4.1
		c-0.39-0.54-0.75-1.05-1.09-1.55c-0.34-0.5-0.7-1.03-1.09-1.59c-0.23-0.37-0.56-0.92-1.01-1.66c-0.44-0.74-0.71-1.16-0.8-1.26
		l-6-10.64c-1.2-2.17-2.44-3.93-3.7-5.28c-1.26-1.35-2.44-2.32-3.53-2.91c-1.09-0.58-2.07-0.95-2.95-1.1
		c-0.87-0.15-1.9-0.22-3.08-0.22v19.7c0,3.83,1.82,5.8,5.45,5.92v0.58H82.16v-0.58c1-0.05,1.88-0.25,2.66-0.6
		c0.77-0.35,1.41-0.96,1.93-1.83c0.51-0.87,0.77-2.03,0.77-3.49V30.63c0-2.14-0.49-3.66-1.47-4.53c-0.98-0.88-2.04-1.32-3.2-1.32
		h-0.68v-0.77h17.38c2.79,0,5.16,0.46,7.11,1.39c1.94,0.93,3.45,2.1,4.53,3.53c1.08,1.43,1.85,2.93,2.32,4.52s0.7,3.14,0.7,4.68
		c0,1.95-0.38,3.82-1.14,5.61c-0.76,1.79-1.93,3.33-3.51,4.62c-1.58,1.29-3.55,2.17-5.91,2.63v0.15c3,1.56,5.77,4.66,8.32,9.29
		l4.53,8.23c1.32,2.38,2.48,4.2,3.47,5.45 M92.69,50.23h2.86c3,0,5.46-0.46,7.38-1.39c1.92-0.93,3.31-2.25,4.17-3.97
		c0.86-1.72,1.29-3.82,1.29-6.31c0-2.07-0.39-4.1-1.16-6.09c-0.77-1.99-2.08-3.66-3.94-5.01c-1.85-1.35-4.34-2.03-7.48-2.03
		c-1.27,0-2.32,0.11-3.13,0.33V50.23z"/>
</g>
<linearGradient id="SVGID_00000025441046871111476910000007455471574117100691_" gradientUnits="userSpaceOnUse" x1="206.3338" y1="50.9421" x2="249.234" y2="50.9421">
	<stop  offset="0" style="stop-color:#D57F00"/>
	<stop  offset="1" style="stop-color:#FBAE17"/>
</linearGradient>
<path style="fill:url(#SVGID_00000025441046871111476910000007455471574117100691_);" d="M245.35,26.1
	c-0.98,0.88-1.47,2.39-1.47,4.53v40.73c0,1.46,0.26,2.63,0.77,3.49c0.51,0.87,1.15,1.47,1.93,1.83c0.77,0.35,1.66,0.55,2.66,0.6
	v0.58h-15.98v-0.58c3.64-0.12,5.45-2.1,5.45-5.92v-19.7c-1.18,0-2.21,0.07-3.08,0.22c-0.88,0.15-1.86,0.51-2.95,1.1
	c-1.09,0.58-2.26,1.55-3.53,2.91c-1.26,1.35-2.49,3.11-3.7,5.28l-6,10.64c-0.09,0.1-0.36,0.52-0.8,1.26
	c-0.44,0.74-0.78,1.3-1.01,1.66c-0.39,0.56-0.75,1.09-1.09,1.59c-0.34,0.5-0.71,1.02-1.09,1.55h-9.13v-0.58
	c1.2-0.12,2.42-0.67,3.66-1.64c1.24-0.98,2.88-3.3,4.92-6.98l4.53-8.23c2.55-4.63,5.32-7.73,8.32-9.29V51
	c-2.36-0.46-4.33-1.34-5.91-2.63c-1.58-1.29-2.75-2.83-3.51-4.62c-0.76-1.79-1.14-3.66-1.14-5.61c0-1.54,0.23-3.09,0.7-4.68
	c0.47-1.58,1.24-3.09,2.32-4.52c1.08-1.43,2.59-2.6,4.53-3.53c1.94-0.93,4.31-1.39,7.11-1.39h17.38v0.77h-0.68
	C247.39,24.79,246.33,25.22,245.35,26.1z M238.71,25.77c-0.82-0.22-1.86-0.33-3.14-0.33c-3.14,0-5.63,0.68-7.48,2.03
	c-1.85,1.35-3.16,3.02-3.94,5.01c-0.77,1.99-1.16,4.02-1.16,6.09c0,2.49,0.43,4.59,1.29,6.31c0.86,1.72,2.26,3.04,4.17,3.97
	c1.92,0.93,4.38,1.39,7.38,1.39h2.86V25.77z"/>
<linearGradient id="SVGID_00000105403969128362398870000011278573619158909359_" gradientUnits="userSpaceOnUse" x1="158.1892" y1="50.9421" x2="211.2466" y2="50.9421">
	<stop  offset="0" style="stop-color:#D57F00"/>
	<stop  offset="1" style="stop-color:#FBAE17"/>
</linearGradient>
<path style="fill:url(#SVGID_00000105403969128362398870000011278573619158909359_);" d="M160.34,39.52c1.43-3.51,3.4-6.54,5.91-9.1
	c2.51-2.56,5.34-4.51,8.5-5.87c3.16-1.35,6.45-2.03,9.88-2.03c3.5,0,6.85,0.71,10.07,2.12c3.22,1.41,6.08,3.41,8.59,6
	c2.51,2.58,4.46,5.61,5.86,9.08c1.4,3.47,2.1,7.18,2.1,11.13c0,5.14-1.18,9.89-3.53,14.26c-2.35,4.36-5.57,7.83-9.66,10.4
	c-4.09,2.57-8.59,3.86-13.49,3.86c-4.88,0-9.34-1.29-13.36-3.86c-4.02-2.57-7.19-6.03-9.52-10.36s-3.49-9.03-3.49-14.07
	C158.19,46.88,158.91,43.03,160.34,39.52z M166.04,63.85c1.24,3.45,2.85,6.18,4.84,8.19c1.99,2.01,4.18,3.46,6.58,4.35
	c2.4,0.89,4.76,1.34,7.1,1.34c2.61,0,5.13-0.48,7.55-1.44c2.42-0.96,4.63-2.53,6.65-4.72c2.01-2.18,3.59-5,4.74-8.44
	c1.15-3.45,1.72-7.49,1.72-12.12c0-5.27-0.69-9.69-2.08-13.27s-3.15-6.36-5.3-8.34c-2.15-1.97-4.36-3.33-6.63-4.08
	c-2.27-0.74-4.46-1.11-6.58-1.11c-2.73,0-5.63,0.69-8.72,2.06c-3.09,1.38-5.82,4.09-8.18,8.13c-2.36,4.05-3.54,9.65-3.54,16.82
	C164.19,56.19,164.81,60.4,166.04,63.85z"/>
<linearGradient id="SVGID_00000132069636335201034790000001395527782524268160_" gradientUnits="userSpaceOnUse" x1="120.0824" y1="50.9421" x2="157.9719" y2="50.9421">
	<stop  offset="0" style="stop-color:#D57F00"/>
	<stop  offset="1" style="stop-color:#FBAE17"/>
</linearGradient>
<path style="fill:url(#SVGID_00000132069636335201034790000001395527782524268160_);" d="M120.08,74.24
	c1.01-1.25,2.2-3.11,3.58-5.59l4.53-8.23c2.54-4.63,5.32-7.73,8.32-9.29V51c-2.36-0.46-4.33-1.34-5.91-2.63
	c-1.58-1.29-2.75-2.83-3.51-4.62c-0.76-1.79-1.14-3.66-1.14-5.61c0-1.54,0.23-3.09,0.7-4.68s1.24-3.09,2.32-4.52
	c1.08-1.43,2.59-2.6,4.53-3.53c1.94-0.93,4.31-1.39,7.11-1.39h17.38v0.77h-0.68c-1.16,0-2.23,0.44-3.2,1.32
	c-0.98,0.88-1.47,2.39-1.47,4.53v40.73c0,1.46,0.26,2.63,0.77,3.49s1.15,1.47,1.93,1.83c0.77,0.35,1.66,0.55,2.66,0.6v0.58h-15.98
	v-0.58c3.64-0.12,5.45-2.1,5.45-5.92v-19.7c-1.18,0-2.21,0.07-3.08,0.22c-0.87,0.15-1.86,0.51-2.95,1.1
	c-1.09,0.58-2.27,1.55-3.53,2.91c-1.26,1.35-2.49,3.11-3.7,5.28l-6,10.64c-0.09,0.1-0.36,0.52-0.8,1.26
	c-0.44,0.74-0.78,1.3-1.01,1.66c-0.39,0.56-0.75,1.09-1.09,1.59c-0.34,0.5-0.7,1.02-1.09,1.55h-4.03 M147.44,25.77
	c-0.82-0.22-1.86-0.33-3.14-0.33c-3.14,0-5.63,0.68-7.48,2.03c-1.85,1.35-3.16,3.02-3.94,5.01c-0.77,1.99-1.16,4.02-1.16,6.09
	c0,2.49,0.43,4.59,1.29,6.31c0.86,1.72,2.26,3.04,4.17,3.97c1.92,0.93,4.38,1.39,7.38,1.39h2.86V25.77z"/>
<linearGradient id="SVGID_00000171717515130777242350000006077659049928639389_" gradientUnits="userSpaceOnUse" x1="120.0482" y1="50.8725" x2="120.0482" y2="50.8725">
	<stop  offset="0" style="stop-color:#D57F00"/>
	<stop  offset="1" style="stop-color:#FBAE17"/>
</linearGradient>
<line style="fill:url(#SVGID_00000171717515130777242350000006077659049928639389_);stroke:#FFFFFF;stroke-width:4;stroke-miterlimit:10;" x1="120.05" y1="23.88" x2="120.05" y2="77.87"/>
</svg>
